<svg width="30" height="11" viewBox="0 0 30 11" fill="none" xmlns="http://www.w3.org/2000/svg">
<path d="M8.868 1.84V10.012H8.208L2.508 2.8V8.896L3.768 9.532L3.528 10.012H0.72V9.64L1.848 8.752V1.72L0.6 1.048L0.84 0.568H2.652L8.208 7.6V1.672L6.96 1.048L7.2 0.568H10.008V0.952L8.868 1.84ZM15.0963 9.52L14.8563 10H11.2083V9.628L12.3363 8.74V1.468L11.0883 1.048L11.3283 0.568H14.9763V0.939999L13.8363 1.828V9.088L15.0963 9.52ZM20.4123 10H18.2403L14.5203 5.272L18.2043 2.056L16.8123 1.048L17.0523 0.568H20.2803V0.939999L15.9603 4.708L19.2603 8.836L20.6523 9.52L20.4123 10ZM27.5805 4.924C28.1965 5.1 28.6805 5.396 29.0325 5.812C29.3845 6.228 29.5605 6.708 29.5605 7.252C29.5605 7.756 29.3565 8.232 28.9485 8.68C28.5485 9.12 28.0445 9.472 27.4365 9.736C26.8365 10 26.2645 10.132 25.7205 10.132C25.3205 10.132 24.9285 10.112 24.5445 10.072C23.9045 10.032 23.4085 10.012 23.0565 10.012H21.5325V9.64L22.6605 8.752V1.456L21.4125 1.048L21.6525 0.568H23.0445C23.7725 0.568 24.4885 0.544 25.1925 0.495999C25.7365 0.463999 26.1365 0.447999 26.3925 0.447999C26.9285 0.447999 27.4005 0.551999 27.8085 0.76C28.2165 0.968 28.5285 1.252 28.7445 1.612C28.9685 1.964 29.0805 2.36 29.0805 2.8C29.0805 3.2 28.9405 3.584 28.6605 3.952C28.3885 4.312 28.0285 4.628 27.5805 4.9V4.924ZM27.4605 3.4C27.4605 2.768 27.2925 2.252 26.9565 1.852C26.6205 1.452 26.1205 1.252 25.4565 1.252C24.9765 1.252 24.5445 1.388 24.1605 1.66V4.84H25.8765C26.3725 4.84 26.7605 4.716 27.0405 4.468C27.3205 4.212 27.4605 3.852 27.4605 3.388V3.4ZM26.0565 9.256C26.6325 9.256 27.0885 9.112 27.4245 8.824C27.7685 8.536 27.9405 8.148 27.9405 7.66C27.9405 7.036 27.7565 6.532 27.3885 6.148C27.0285 5.764 26.4885 5.56 25.7685 5.536C25.7125 5.544 25.6365 5.548 25.5405 5.548H24.1605V8.944C24.6965 9.16 25.3285 9.268 26.0565 9.268V9.256Z" fill="white"/>
</svg>
